<svg xmlns="http://www.w3.org/2000/svg" xmlns:xlink="http://www.w3.org/1999/xlink" version="1.1" x="0px" y="0px" viewBox="0 0 100 125" style="enable-background:new 0 0 100 100;" xml:space="preserve"><path d="M49.5,3.4C30,3.6,14.2,19.6,14.2,39.2c0,5.3,1.2,10.4,3.2,14.9c5.3,12.8,16.2,25.9,28.8,40.7  c2,2.4,5.7,2.4,7.7,0c12.5-14.7,23.5-27.9,28.7-40.7c2.1-4.6,3.3-9.7,3.2-15.1C85.7,19.2,69.4,3.1,49.5,3.4z M50,65.4  c-14.5,0-26.2-11.7-26.2-26.2c0-14.5,11.7-26.2,26.2-26.2c14.5,0,26.2,11.7,26.2,26.2C76.2,53.7,64.5,65.4,50,65.4z"/><path d="M59.4,32.7c0,5.2-4.2,9.4-9.4,9.4c-5.2,0-9.4-4.2-9.4-9.4c0-5.2,4.2-9.4,9.4-9.4  C55.2,23.3,59.4,27.5,59.4,32.7z"/><path d="M63,54.6c0.3,1-0.1,2.1-0.9,2.6c-3.4,2.3-7.6,3.7-12.1,3.7c-4.5,0-8.6-1.3-12.1-3.7  c-0.9-0.6-1.2-1.6-0.9-2.6c1.6-5.6,6.8-9.7,13-9.7C56.2,44.9,61.4,49,63,54.6z"/><text x="0" y="115" fill="#000000" font-size="5px" font-weight="bold" font-family="'Helvetica Neue', Helvetica, Arial-Unicode, Arial, Sans-serif">Created by Nubaia Karim Barsha</text><text x="0" y="120" fill="#000000" font-size="5px" font-weight="bold" font-family="'Helvetica Neue', Helvetica, Arial-Unicode, Arial, Sans-serif">from the Noun Project</text></svg>